<?xml version="1.0" encoding="utf-8"?>
<!-- Generator: Adobe Illustrator 25.4.1, SVG Export Plug-In . SVG Version: 6.00 Build 0)  -->
<svg version="1.1" xmlns="http://www.w3.org/2000/svg" xmlns:xlink="http://www.w3.org/1999/xlink" x="0px" y="0px"
	 viewBox="0 0 595.28 595.28" style="enable-background:new 0 0 595.28 595.28;" xml:space="preserve">
<style type="text/css">
	.st0{display:none;}
	.st1{display:inline;}
	.st2{fill:none;}
	.st3{font-family:'Amatic-Bold';}
	.st4{font-size:93px;}
	.st5{font-family:'PingFangSC-Light-GBpc-EUC-H';}
	.st6{font-size:76px;}
</style>
<g id="Lag_1">
	<g>
		<path d="M254.29,198.04c0.03-0.12,0.07-0.23,0.1-0.35c0.08-0.29,0.16-0.58,0.24-0.86c0.14-0.49,0.28-0.99,0.43-1.48
			c0.18-0.59,0.38-1.16,0.59-1.73c1.12-3.84,2.74-6.93,4.73-10.37c0.69-1.41,1.96-2.68,3.46-5.15c0.59-1.06,1.15-2.47,1.75-3.52
			c0.29-0.5,0.71-0.89,1.21-1.08c2.73-3.97,5.77-7.8,8.66-11.73c4.69-6.38,13.2-11.5,12.82-19.97c-1.36-30.5,4.6-60.63,3.95-90.97
			c-0.37-17.36-17.3-26.79-33.35-19.84c-5.6,2.42-9.85,5.29-17.12,3.39c-20.67-5.4-36.45,8.96-53,17.21
			c-8.62,4.29-6.15,17.52-3.07,25.93c9.21,25.13,25.51,43.61,52.82,50.37c9.76,2.42,20.6,1.73,33.25,10.36
			c-18.32-1-35,6.36-45.4-2.36c-17.97-15.07-39.67-28.12-45.47-54.54c-3.39-15.41-18.18-21.5-29.72-12.61
			c-8.21,6.32-17.61,10.56-25.34,16.23c-11.78,8.64-19.95,22.7-28.25,35.37c-4.18,6.38,0.55,12.85,5.39,18.18
			c15.69,17.25,35.49,21.6,57.57,18.29c7.91-1.19,15.67-3.42,25.49-5.63c-12.83,15.13-27.49,14.97-42.63,12.79
			c-17.45-2.51-33.2-9.6-48.53-17.98c-8.08-4.42-18.15-7.29-22.76,2.86c-6.44,14.17-21.4,21.59-22.63,41.26
			c-1.39,22.26,1.78,33.51,24.81,33.55c18.76,0.03,36.04-5.76,54.11-18.18c-4.65,14.63-12.85,19.68-23.32,22.87
			c-18.05,5.51-35.65,1.05-53.28-1.77c-12.34-1.98-19.77,2.3-20.07,14.92c-0.15,6.46-3.79,12.12-3.61,17.84
			c0.35,11.25-8.54,25.28,3.11,33.25c10.95,7.49,25.03,4.67,37.77,0.51c12.64-4.13,20.99-12.74,26.12-24.71
			c3.34-7.8,6.47-15.69,11.08-26.92c-4.92,43.61-17.67,60.1-54.74,63.64c-19.14,1.83-25.95,7.75-25.48,25.94
			c0.37,14.17,2.63,30.08,12.83,37.36c11.42,8.16,26.15,0.58,37.49-8.19c7.88-6.09,10.52-14.52,12.54-24.04
			c2.13-10.04-0.87-21.23,5.33-33.62c11.38,40.64-1.02,62.5-38.04,72.7c-6.33,1.75-14.52,2.25-16.03,10.52
			c-3.75,20.42,17.76,46.39,38.9,48.13c-14.52,9.98-5.19,22.29,0.02,31.18c4.62,7.88,13.76,18.77,24.28,15.63
			c23.26-6.93,21.01-28.6,23.24-47.35c8.36,17.03,1.75,32.31-7.82,45.55c-8.98,12.43-7.64,23.55,3.47,30.25
			c9.92,5.99,22.14,23.95,37.32-3.89c-2.54,14.3-10.13,23.74,1.19,29.19c7.98,3.84,16.84,13.16,25.03,7.85
			c11.06-7.17,7-21.11,5.44-35.85c7.47,11.65,6.58,20.62,5.01,29.98c-1.21,7.2-2.2,14.52,6.72,19.12
			c7.56,3.91,15.14,6.93,22.94,3.39c11.35-5.14,0.88-15.85,4.71-23.33c6.51,3.91,7.86,10.52,10.18,16.97
			c3.18,8.88,17.47,14.83,31.42,16.09c0.23-0.16,0.51-0.28,0.84-0.34c1.51-0.27,2.86-1.09,4.26-1.71c1.59-0.7,3.23-1.05,4.97-1.03
			c1.79,0.02,3.54,0.36,5.3,0.62c1.51,0.22,3.12,0.44,4.62,0.03c0.32-0.09,0.65-0.12,0.96-0.09c2.58-1.15,4.74-2.67,6.24-4.61
			c2.37-3.07,4.52-7.1,3.1-12.08c-1.64-5.76-3.41-10.63-5.45-14.7c-0.27-0.23-0.53-0.45-0.84-0.67c-0.68-0.49-1.31-0.86-2.08-1.15
			c-0.74-0.28-1.49-0.53-2.18-0.91c-2.52-1.4-3.1-3.81-2.95-6.33c-0.61-0.8-1.04-1.72-1.29-2.71c-7.64-5.55-18.29-6.3-34.46-3.57
			c-11.89,2.01-22.41,1.62-33.96-10.05c5.67,1.87,7.87,2.64,10.09,3.32c10.96,3.35,24.76,7.33,28.35-6.73
			c3.11-12.17-8.33-19.69-20.57-21.01c-1.63-0.18-2.75-0.38-3.55-0.7c-0.21,0.33-0.5,0.59-0.89,0.7c-6.23,1.85-12.75,2.13-19.2,1.75
			c-6.32-0.38-12.59-1.44-18.73-2.96c-2.48-0.61-15.95-7.08-13.45-6.46c5.87,1.46,25.89,4.99,31.93,5.41
			c5.95,0.41,8.12,0.97,13.88-0.74c0.17-0.05,1.9-0.36,2.08-0.37c-0.09-0.86,2.36-2.35,2.27-3.69
			c-1.04-15.29-12.12-22.34-25.5-18.38c-0.01,0.01-0.02,0.01-0.03,0.02c-0.04,0.01-0.08,0.02-0.11,0.03
			c-0.14,0.28-0.32,0.54-0.56,0.75c-1.42,1.24-3.21,2.07-5.02,2.58c-1.61,0.45-3.25,0.73-4.92,0.79c-0.26,0.18-0.54,0.3-0.85,0.3
			c-4.18,0.01-8.37,0.28-12.54-0.01c-0.15-0.01-0.28-0.06-0.42-0.1c-0.3,0.11-0.63,0.16-0.95,0.1c-1.6-0.27-3.06-0.92-4.55-1.53
			c-0.3-0.02-0.6-0.06-0.89-0.13c-0.37-0.1-0.72-0.22-1.06-0.38c-14.69-2.56-22.48-12.03-32-33.29
			c12.52,19.84,31.15,26.75,51.44,31.33c0.23-0.14,0.48-0.22,0.75-0.22c0.8,0,1.59-0.06,2.38-0.16c0.42-0.05,0.84-0.12,1.26-0.21
			c0.21-0.04,0.42-0.09,0.64-0.14c0.04-0.01,0.19-0.05,0.21-0.05c0.83-0.23,1.64-0.53,2.41-0.91c0.15-0.07,0.3-0.17,0.46-0.24
			c0.01-0.01,0.03-0.01,0.04-0.02c0.07-0.05,0.14-0.09,0.21-0.13c0.25-0.16,0.47-0.35,0.7-0.53c6.36-21.41-2.87-34.61-27.75-39.69
			c13.91-27.57,6.29-46.25-22.98-54.76c-32.14-9.35-50.96-29.2-35.1-72.48c-3.67,27.35-0.07,51.61,28.16,64.35
			c9.83,4.44,21.24,11.22,28.6-3.46c9.25-18.47,5.31-37.05-8.97-42.45c-20.91-7.89-36.02-21.97-37.69-44.06
			c-1.91-25.16,13-44.41,30.12-64.63c2.1,10.63-3.7,14.38-7.1,19.1c-8.91,12.39-14.61,25.88-14.84,41.33
			c-0.27,17.67,15.21,39.72,28.95,41.37c14.13,1.7,28.6-14.22,33.45-33.16c2.74-10.71-3.37-15.97-7.86-23.08
			c-12.48-19.75-24.61-40.86-11.19-63.85c12.53-21.47,51.42-32.64,78.56-24.91c-15.88,7.97-32.63,6.1-47.69,11.15
			c-14.47,4.85-27.92,12.59-28.78,28.08c-0.96,17.41,5.13,34.71,17.64,48.01c8.22,8.74,19.08-0.1,28.5,2.25
			c16.88,4.2,22.2-5.36,24.08-19.73c0.42-3.22,0.5-6.53,0.65-9.83 M230.41,498.56c0.36-0.96,1.49-1.37,2.43-1.1
			c0.11-0.03,0.22-0.07,0.34-0.09c1.29-0.26,2.57-0.59,3.87-0.81c0.61-0.1,1.24-0.19,1.86-0.22c0.7-0.03,1.44-0.02,2.1,0.23
			c0.79,0.06,1.57,0.29,2.25,0.66c0.51,0.28,0.88,0.69,1.07,1.17c0.6,0.24,1.05,0.67,1.23,1.34c0.22,0.85-0.11,1.52-0.7,2.09
			c-1.84,1.77-4.57,2.11-6.95,1.43c-1.03-0.1-2.06-0.44-2.79-1.15c-0.05-0.04-0.08-0.09-0.12-0.14c-1.2-0.09-2.38-0.31-3.53-0.77
			C230.42,500.77,230.04,499.55,230.41,498.56z M208.69,469.07c3.22-2.1,7.03-2.17,10.74-2.17c1.13,0,2.03,0.56,2.23,1.74
			c0.12,0.7-0.29,1.53-0.91,1.95c-0.01,0.04-0.01,0.07-0.03,0.11c-0.05,0.26-0.16,0.49-0.33,0.69c-0.16,0.22-0.35,0.38-0.59,0.49
			c-0.22,0.15-0.47,0.24-0.74,0.26c-0.17,0-0.33,0.03-0.5,0.07c-0.2,0.12-0.41,0.2-0.65,0.22c-0.3,0.61-0.88,1.11-1.54,1.11
			c-2.42,0-5.02,0.04-7.25-1.04C207.86,471.89,207.37,469.94,208.69,469.07z M246.58,184.31c-2.12,5.07-4.99,12.45-13.33,13.5
			c-6.33,0.8-8.5-4.55-7.53-9.82c1.69-9.12,10.05-9.56,16.98-11.1C246.58,176.03,248.04,178.71,246.58,184.31z M262.4,114.43
			c-5.51-3.94-13.35-6.75-13.4-15.18c-0.02-4.52,4.45-7.13,9.39-6.09c7.95,1.67,10.23,7.96,10.86,14.92
			C269.62,112.22,267.73,115.11,262.4,114.43z M165.2,130.58c-3.26-3.74-1.92-9.57,1.71-11.38c10.14-5.06,17.23,0.24,23.69,10.78
			C181.56,134.23,173.27,139.82,165.2,130.58z M157.48,235.95c-0.04-0.36,0.01-0.7,0.15-1.04l0.26-0.44
			c0.22-0.28,0.49-0.48,0.81-0.62c0.17-0.05,0.35-0.09,0.52-0.14c0.1-0.02,0.2-0.01,0.3-0.01c0.01-0.28,0.02-0.57,0.02-0.85
			c0-0.97,0.57-2.23,1.74-2.23h1.03c0.98,0,2.21,0.57,2.23,1.74c0.04,2.71,1.43,5.31,2.69,7.81c1.55,3.07,3.29,6.06,4.65,9.23
			c1.04,2.44,1.95,5.12,1.72,7.8c-0.2,2.33-1.68,4.53-3.37,6.09c-1.35,1.24-3.21,1.91-5,1.22c-1.66-0.64-2.74-2.14-3.57-3.63
			c-2.1-3.78-2.96-8.35-3.61-12.57c-0.52-3.4-1.2-7.36-0.56-10.8V235.95z M112.46,191.4c-5.27,0.79-8.11-3.5-8.09-8.14
			c0.03-8.56,7.15-6.6,12.45-7.35c3.69,1.05,10.6-1.68,10.43,4.19C127,188.15,119.18,190.39,112.46,191.4z M128.09,302.46
			c0.91-0.11,1.66,0.4,2.03,1.16c0.71-0.13,1.48,0.06,1.97,0.69c4.21,5.39,8.98,10.59,9.59,17.74c0.1,1.18-0.66,1.97-1.74,2.23
			c-2.1,0.5-4.24,0.14-6.05-1.02c-2.97-1.91-4.48-5.6-5.44-8.84c-0.94-3.2-1.45-6.47-2.1-9.73
			C126.13,303.63,127.07,302.59,128.09,302.46z M86.09,249.96c-1.22,1.68-2.85,3.1-4.39,4.47c-2.12,1.88-4.36,3.63-6.71,5.2
			c-3.4,2.28-8.35,5.54-12.69,4.45c-4.35-1.09-5.43-6.67-2.6-9.82c2.92-3.25,7.69-4.64,11.76-5.77c2.18-0.61,4.38-1.13,6.58-1.67
			c0.45-0.11,0.9-0.22,1.35-0.33c0.07-0.02,0.41-0.11,0.43-0.11c0.09-0.02,0.18-0.05,0.27-0.07c0.51-0.14,1.02-0.29,1.5-0.52
			c1.14-0.55,2.08,0.06,2.47,0.96c0.07,0,0.14-0.01,0.21-0.01C85.97,246.72,87.18,248.46,86.09,249.96z M80,311.23
			c-0.15,1.72-0.88,3.42-1.68,4.93c-1.02,1.94-2.23,3.78-3.58,5.5c-2.24,2.88-4.88,5.74-8.1,7.53c-1.18,0.66-2.58,1.13-3.94,0.89
			c-1.57-0.28-2.68-1.52-3.11-3.01c-0.59-2.03-0.43-4.13,0.69-5.95c1.07-1.73,2.8-3.01,4.5-4.07c1.99-1.24,4.08-2.29,6.16-3.37
			c0.49-0.26,0.98-0.52,1.47-0.78c0.08-0.04,0.39-0.22,0.42-0.24c0.15-0.09,0.3-0.18,0.45-0.27c0.67-0.42,1.33-0.87,1.9-1.42
			c0.16-0.16,0.35-0.26,0.56-0.32c0.23-0.31,0.48-0.62,0.7-0.94C77.67,307.97,80.16,309.37,80,311.23z M74.79,395.82
			c-1.69-1.13-2.9-2.91-2.73-5c0.14-1.8,1.29-3.38,2.52-4.62c1.51-1.53,3.24-2.81,5.02-4.02c1.77-1.19,3.59-2.3,5.38-3.46
			c0.73-0.47,1.46-0.95,2.17-1.47c0.3-0.22,0.6-0.45,0.88-0.7c0.08-0.07,0.17-0.17,0.27-0.25c0.02-0.02,0.03-0.03,0.05-0.05
			c0.51-0.58,1.15-0.76,1.75-0.68c1.42-1.64,4.08,0.17,3.29,2.16c-0.29,0.74-0.52,1.51-0.74,2.27c-0.03,0.11-0.1,0.36-0.13,0.46
			c-0.07,0.24-0.13,0.49-0.2,0.73c-0.14,0.52-0.28,1.03-0.42,1.55c-0.66,2.39-1.34,4.79-2.29,7.08c-1.46,3.56-3.98,7.8-8.27,8.11
			C78.96,398.11,76.72,397.12,74.79,395.82z M81.22,432.75c5.71-6.36,12.19-12.26,16.49-19.46c4.55-7.62,6.63-16.72,10.25-26.39
			C109.91,408.57,100.25,424.51,81.22,432.75z M110.94,438.37c-1.09,1.97-2.74,3.53-4.85,4.37c-1.2,0.48-2.6,0.94-3.91,0.66
			c-1.49-0.33-2.39-1.57-2.38-3.07c0.01-1.13,0.41-2.22,0.88-3.23c1.92-4.11,4.82-7.71,7.57-11.31c0.13-0.32,0.27-0.63,0.39-0.96
			c0.67-1.76,3.82-1.47,3.82,0.55C112.47,429.67,113.1,434.45,110.94,438.37z M159.13,430.41c0.01-0.01,0.01-0.01,0.02-0.02
			c0.22-0.28,0.49-0.48,0.81-0.62c0.17-0.05,0.35-0.09,0.52-0.14c0.36-0.04,0.7,0.01,1.04,0.15c0.15,0.09,0.29,0.17,0.44,0.26
			c0.05,0.03,0.08,0.08,0.12,0.11c0.19-0.03,0.4-0.04,0.63-0.02c1.3,0.15,2.15,0.12,3.41,0.11c1.34-0.02,2.69-0.05,4.04,0.05
			c2.64,0.2,5.21,1.12,6.84,3.31c0.83,1.11,0.31,2.46-0.83,3.06c-6.4,3.38-13,0.22-18.87-2.72c-0.97-0.48-1.49-1.59-1.05-2.63
			c0.41-0.95,1.66-1.53,2.63-1.05C158.96,430.32,159.05,430.37,159.13,430.41z M139.46,373.52c0.27-0.66,0.9-1.27,1.61-1.27
			c0.93,0,1.68,0.03,2.38,0.77c0,0,0.01,0.01,0.01,0.01c2.68,1.25,5.41,2.36,7.96,3.91c2.54,1.54,5.7,4.02,5.21,7.39
			c-0.25,1.73-1.5,3.19-3.03,3.97c-1.39,0.71-3.01,0.57-4.44,0.08c-2.96-1.02-5.38-3.63-7.41-5.91c-1.68-1.9-3.15-3.95-4.73-5.93
			C135.63,374.79,137.81,372.76,139.46,373.52z M119.43,366.53c5.75,22.09,15.98,40.86,39.32,49.65
			C131.15,414.52,123.57,405.03,119.43,366.53z M144.79,487.28c-0.14,1.54-0.38,3.07-0.81,4.56c-0.36,1.27-0.85,2.66-1.91,3.53
			c-3.04,2.49-5.58-1.66-6.42-4.13c-0.48-1.42-0.3-2.99-0.06-4.44c0.29-1.78,0.75-3.54,1.24-5.28c0.51-1.79,1.05-3.57,1.65-5.33
			c0.3-0.89,0.58-1.83,0.99-2.68c0.47-0.97,1.6-1.49,2.63-1.05c0.96,0.41,1.52,1.66,1.05,2.63c-0.05,0.1-0.08,0.21-0.13,0.32
			c0.27,0.19,0.51,0.46,0.68,0.83C145.18,479.58,145.1,483.74,144.79,487.28z M183.05,522.54c-0.14,0.19-0.31,0.33-0.49,0.45
			c0.02,0.31-0.02,0.62-0.14,0.89c-0.46,1.07-1.59,1.36-2.63,1.05c-8.01-2.41-3.7-12.46-1.93-17.73c0.49-1.48,2.56-1.52,3.43-0.42
			C184.77,511.19,186.64,517.61,183.05,522.54z M215.11,537.67c-0.94,1.74-3.27,2.51-5.16,1.59c-2.39-1.15-2.69-4.22-2.75-6.56
			c-0.03-1.22,0-2.44-0.01-3.66c0-0.54-0.01-1.08-0.06-1.61c-0.02-0.22-0.04-0.44-0.08-0.65c-0.02-0.1-0.04-0.19-0.06-0.29
			c0,0,0,0,0,0c-0.24-1,0.15-1.96,1.13-2.42c0.41-0.19,0.9-0.19,1.35-0.05c0.11-0.04,0.22-0.07,0.34-0.09
			c1.05-0.18,2.13,0.7,2.23,1.74c0,0.03,0.01,0.07,0.01,0.11c0.03,0.08,0.05,0.17,0.07,0.21c0.14,0.38,0.31,0.76,0.48,1.13
			c0.46,1.02,0.94,2.02,1.39,3.04c0.79,1.82,1.67,3.9,1.53,5.93c0.01,0.03,0.02,0.06,0.02,0.09
			C215.65,536.75,215.45,537.27,215.11,537.67z M257.22,535.28c-0.86,1.49-1.94,2.74-3.68,3.14c-1.12,0.25-2.35-0.01-3.35-0.56
			c-1.03-0.57-1.91-1.28-2.75-2.09c-0.47-0.46-0.93-0.93-1.39-1.4c-0.07-0.08-0.15-0.15-0.22-0.23c0.05,0.06,0.1,0.1,0.13,0.13
			c0.09,0.1,0.17,0.17,0,0c-0.05-0.05-0.09-0.1-0.12-0.13c-0.15-0.15-0.3-0.29-0.46-0.44c-0.21-0.19-0.38-0.41-0.51-0.64
			c-1.73-0.83-1.29-3.54,0.64-3.78c3.64-0.45,7.06,0.91,10.25,2.51c0.6,0.3,1,0.81,1.14,1.4c0.14,0.16,0.26,0.34,0.35,0.53
			C257.42,534.14,257.45,534.88,257.22,535.28z"/>
		<g>
			<path d="M547.35,279.56c-42.16-2.6-59.22-20.18-61.43-57.65c9.93,9.23,12.37,21.22,18.38,30.97
				c8.22,13.35,35.17,22.76,51.39,17.82c18.93-5.77,6.47-20.7,6.53-29.96c0.07-11.75-5.7-25.19-13.01-34.83
				c-6.48-8.55-17.13,1.43-26.05,2.1c-4.95,0.38-9.86,1.36-14.81,1.54c-29.3,1.08-57.89-18.72-63.37-44.21
				c8.8,1.39,11.4,9.23,16.1,14.57c19.62,22.28,47.28,30.69,67.61,20.3c8.18-4.18,17.37-11.08,11.72-19.77
				c-7.09-10.91-9.69-23.79-17.95-33.94c-19.52-23.96-21.6-24.47-47.61-7.19c-27.13,18.02-58.63,15.81-85.11-8.95
				c8.85,3.6,13.67,5.87,18.7,7.54c22.63,7.54,45.04,9.35,66.12-4.55c15.33-10.1,14.58-19.78,4.07-34.86
				c-8.41-12.06-20.27-17.83-30.83-26.29c-16.65-13.33-23.76-13.49-36.09,3.34c-2.76,3.76-3.38,9.53-9.58,10.9
				c2.57-15.82,8.86-32.96-12.29-41.09c-16.13-6.2-30.57-14.43-49.63-15.66c-33.81-2.18-47.41,7.78-42.55,42.73
				c2.75,19.81,3.54,39.55,3.31,59.42c-0.06,4.83,1.62,10.78-2.76,14.11c-15.98,12.17-25.6,29.32-36.83,45.21
				c-0.22,0.46-0.43,0.93-0.64,1.4c-1.18,4.42-1.84,9-2.34,13.5c-0.05,0.47-0.23,0.83-0.48,1.1c-0.3,20.22,4.66,39.29,15.87,57
				c2.39,3.78,4.96,7.75,10.16,5.4c5.81-2.63,5.77-7.3,3.02-12.37c-1.47-2.71-2.93-5.44-4.24-8.23
				c-15.02-32.04-8.71-59.55,18.44-82.84c8.49-7.29,15.21-6.65,21.69,2.2c9.98,13.65,17.27,28.09,18.64,45.55
				c0.86,11.01,3.53,24.27,18.07,23.78c13.58-0.46,27.47,4.32,40.84-1.27c-0.58,2.8-1.08,5.61-1.81,8.37
				c-3.19,12.12,5.28,33.24,14.59,36.21c21.89,6.98,34.8,1.48,42.08-17.51c6.1-15.89,6.51-31.56-1.65-46.73
				c-4.84-8.99-10.64-17.46-16.01-26.17c8.73,6.02,14.77,13.7,19.99,21.91c18.46,28.99,13.51,55.21-14.17,75.51
				c-4.46,3.27-9.63,5.58-14.41,8.44c-11.63,6.95-13.93,25.86-4.72,41.22c8.49,14.16,20.69,9.72,30.68,3.61
				c16.28-9.96,25.2-25.25,24.29-45.06c-0.39-8.47-1.27-16.92-1.92-25.37c11.93,46.39,7.89,73.86-40.49,82.11
				c-0.61,0.1-1.19,0.37-1.8,0.47c-12.7,2.16-14.73,12.49-15.48,22.29c-0.68,8.75-4.77,19.92,4.95,25.65
				c8.35,4.93,17.54,1.33,26.54-2.64c18.86-8.34,21.47-26.44,28-47.88c-1.06,39.68-14.29,54.03-47.36,56.69
				c-3.7,0.3-7.5,0.48-11.02,1.5c-10.63,3.08-21.07,20.91-16.29,29.32c6.43,11.32,17.32,7.18,26.54,4.62
				c5.88-1.63,11.03-5.85,18.79-10.19c-7.02,16.91-18.01,20.4-31.57,18.48c-6.12-0.87-12.09-2.82-18.21-3.55
				c-9.81-1.17-16.53,4.06-21.41,11.93c-2.63,4.24-4.95,8.55-0.87,13.6c6.3,7.81,14.15,5.83,22.18,4.4
				c4.06-0.72,8.25-4.13,13.75-0.75c-13.47,6.73-14.31,6.77-34.43,2.35c-14.5-3.19-29.38,4.05-30.43,15.68
				c-1.56,17.27,14.01,11.13,22.85,15.44c-11.54,8.95-24.39,3.54-36.27,4.62c-4.58,0.42-9.52,4.14-13.81,9.35
				c-0.03,0.13-0.06,0.25-0.09,0.38c-0.19,0.86-0.34,1.73-0.46,2.61c-0.02,0.18-0.04,0.35-0.07,0.53c0.43,1.19,0.55,2.51,0.22,3.74
				c-0.43,1.6-1.34,2.89-2.55,4c-0.52,0.48-1.09,0.9-1.7,1.27c-0.3,0.59-0.91,1-1.58,1.16c0.71-0.17-0.08,0.04-0.27,0.12
				c-0.01,0-0.02,0.01-0.02,0.01c0.07-0.02,0.05,0.01-0.18,0.1c-0.05,0.03-0.1,0.07-0.14,0.11c-0.07,0.19-0.15,0.37-0.28,0.53
				c-0.37,0.45-0.73,0.91-1.06,1.38c-0.15,0.21-0.29,0.42-0.43,0.64c-0.02,0.03-0.04,0.07-0.07,0.1c-0.36,0.83-0.66,1.7-0.92,2.57
				c-0.01,0.03-0.02,0.06-0.03,0.09c0,0-0.02,0.07-0.05,0.18c-0.05,0.2-0.11,0.39-0.16,0.59c-0.11,0.4-0.21,0.81-0.32,1.22
				c-0.1,0.38-0.27,0.71-0.49,0.98c-0.14,0.89-0.24,1.78-0.32,2.67c-0.04,0.44-0.24,0.8-0.53,1.08c-0.28,3.62,0.24,6.84,1.8,9.22
				c1.65,2.52,3.94,5.03,6.53,6.47c2.67,1.47,5.56,2.46,8.57,3.02c0.97-0.32,2.02-0.5,2.69-0.63c2.79-0.52,6.39-1.78,9.34-3.23
				c0.63-0.6,1.63-0.7,2.38-0.25c0.38,0.23,0.65,0.54,0.84,0.94c0.12,0.25,0.16,0.6,0.14,0.93c0.27,0.1,0.6,0.19,0.96,0.25
				c0.66,0.12,1.32,0.18,1.98,0.2c1.24-0.33,2.45-0.78,3.61-1.25c1.66-0.67,3.3-1.37,4.96-2.01c7.86-4.48,14.21-11.35,16.7-19.68
				c2.79-9.34,4.25-19.29,15.72-28.79c-3.96,10.58-6.49,16.83-8.64,23.21c-1.98,5.87-1.43,12.01,5.23,13.66
				c9.13,2.25,18.74,2.03,26.66-4.25c7.11-5.64,5.08-12.73,2.85-20.31c-6.53-22.2-1.83-34.89,19.14-50.66
				c-5.56,9.77-10.74,17.26-14.28,25.46c-5.14,11.89-3.93,25.53,7.03,31.48c10.77,5.85,20.31-4.26,28.53-12.08
				c6.77-6.44,0.34-13.62,0.49-21.6c4.04,1.45,6.21,2.34,8.45,3.01c10.62,3.16,17.83-0.84,23.92-6.77c0,0,0,0,0,0c0,0,0,0,0,0
				c0.17-0.29,0.33-0.59,0.48-0.9c0.01-0.01,0.01-0.02,0.02-0.04c-0.03-0.92,0.12-1.84,0.5-2.71c0.55-1.28,1.55-2.45,2.85-3.02
				c0.02-0.01,0.04-0.02,0.05-0.04c0.07-0.16,0.15-0.32,0.25-0.44c0.28-0.36,0.86-0.75,1.33-0.75c0.22,0,0.44,0,0.66,0
				c0.2-0.08,0.39-0.16,0.59-0.23c0.23-0.07,0.46-0.14,0.7-0.2c0.31-0.37,0.61-0.73,0.92-1.1c8.5-10.16-3.31-15.08-7.13-21.93
				c-3.37-6.06-9.82-11.02-6.61-19.14c9.91,7.15,11.62,30.09,30.34,18.28c23.33-14.72,28.5-39.98,14.31-55.41
				c21.89,1.42,26.77-2.93,32.76-29.17c5.84-25.58,5.33-24.21-19.15-33.24c-38.45-14.18-45.09-27.57-37.83-61.57
				c5.88,1.71,4.46,6.98,4.77,10.81c1.68,20.69,14.43,33.65,30.65,43.86c16.43,10.34,30.48,3.22,32.2-15.76
				c0.56-6.16,0.57-12.39,1.35-18.52C571.76,288.51,567.57,280.81,547.35,279.56z M525.72,232.55c0.99-2.41,2.91-4.35,5.66-4.25
				c0.35,0.01,0.69,0.07,1.02,0.15c0.21,0.01,0.41,0.01,0.62,0.04c0.94,0.12,1.9,0.42,2.73,0.89c0.7,0.41,1.38,0.89,1.9,1.52
				c0.19,0.07,0.37,0.16,0.52,0.3c0.71,0.66,1.4,1.35,2.02,2.1c1.66,2,3.01,4.74,2.32,7.39c-0.61,2.36-2.43,4.07-4.67,4.94
				c-4.46,1.73-10.28,0.45-12.42-4.16C524.13,238.68,524.59,235.29,525.72,232.55z M475.01,158.16c6.08-0.63,11.48,0.04,11.91,7.79
				c0.32,5.71-3.28,7.46-9.7,7.1c-4.99-0.64-11.88-1.58-12.09-9.6C464.97,157.18,470.94,158.58,475.01,158.16z M405.6,118.19
				c0.49-5.78,4.6-10.41,10.31-11.73c5.84-1.35,8.81,2.74,10.04,7.74c-0.09,7.75-4.7,9.79-11,9.41
				C411,123.37,405.03,124.86,405.6,118.19z M318.56,104.35c0.14-6.64,2.96-11.6,9.68-13.2c4.95,1.07,8.95,3.28,8.5,8.37
				c-0.63,7.19-6.55,10-12.57,11.58C318.53,112.58,318.48,107.86,318.56,104.35z M321.13,131.88c25.25-9.95,53.63-13.23,76.05-36.55
				C393.01,123.84,354.06,134.26,321.13,131.88z M358.07,191.12c-9.88-0.54-9.57-9.42-11.19-16.17c-1.3-5.42,2.59-6.32,6.43-5.2
				c6.24,1.83,13.51,3,13.61,13.06C366.76,187.5,363.51,191.42,358.07,191.12z M401.13,235.23c3.58-12.42,3.82-25.38,10.73-37.47
				c7.15-12.51-3.87-29.42-20.75-35.95c-19.1-7.39-38.94-10.06-64.31-4.93c26.58-17.17,79.94-6.17,91.14,14.56
				C425.51,185.46,416.25,220.18,401.13,235.23z M436.01,257.42c-0.65,1.4-1.82,2.28-3.31,2.63c-1.64,0.39-3.39-0.03-4.96-0.5
				c-1.4-0.43-2.88-1.2-3.69-2.47c-1.67-2.62-0.28-5.52,1.22-7.85c0.7-1.09,1.48-2.11,2.24-3.16c0.35-0.49,0.69-0.98,1.01-1.49
				c0.01-0.02,0.02-0.03,0.03-0.05c0-0.01,0-0.01,0.01-0.01c0.06-0.11,0.12-0.22,0.18-0.33c0.1-0.19,0.19-0.39,0.26-0.59
				c0.18-0.47,0.55-0.81,0.99-1c0.14-0.12,0.29-0.22,0.47-0.29c0.25-0.12,0.52-0.16,0.79-0.13c0.27-0.02,0.52,0.03,0.77,0.14
				c0.11,0.04,0.22,0.08,0.32,0.13c0.25,0.13,0.49,0.27,0.73,0.43c0.2,0.13,0.39,0.29,0.56,0.46c0.29,0.29,0.58,0.57,0.8,0.91
				c0.21,0.33,0.43,0.68,0.55,1.05c0.14,0.34,0.18,0.69,0.13,1.06l-0.05,0.19c0,0,0,0,0,0c0.04,0.16,0.08,0.31,0.12,0.47
				c0.02,0.07,0.11,0.4,0.04,0.14c0.21,0.79,0.42,1.58,0.61,2.37c0.33,1.35,0.63,2.72,0.71,4.11
				C436.6,254.89,436.55,256.25,436.01,257.42z M450.91,319.67c-0.31,4.28-4.92,8.91-9.38,7.48c-3.81-1.22-5.53-6.06-5.83-9.66
				c-0.34-4.05,1.02-9.11,5.47-10.28c0.63-0.17,1.28-0.13,1.8,0.15c0.04-0.03,0.07-0.07,0.11-0.11c0.73-0.56,1.67-0.82,2.58-0.83
				c0.48,0,0.84,0.04,1.26,0.28c0.36,0.21,0.69,0.54,0.84,0.94c0.17,0.46,0.3,0.92,0.41,1.39c0.05,0.08,0.1,0.15,0.14,0.24
				c0.59,1.35,0.9,2.84,1.07,4.32C450.47,315.44,451.07,317.57,450.91,319.67z M452.61,374.78c-0.75,1.98-1.79,3.93-3.13,5.57
				c-1.18,1.45-2.72,2.81-4.54,3.38c-1.01,0.31-2.04,0.44-3.1,0.3c-0.23-0.03-0.45-0.08-0.67-0.14c-0.06-0.02-0.88-0.25-0.29-0.08
				c-0.21-0.06-0.43-0.12-0.64-0.18c-0.39-0.12-0.78-0.25-1.16-0.42c-1.34-0.58-2.67-1.54-3.14-2.99c-0.49-1.51-0.01-2.97,0.83-4.25
				c0.58-0.88,1.31-1.67,2.11-2.4c0.36-0.54,0.77-1.04,1.27-1.5c1.02-0.95,2.32-1.65,3.69-2.09c0.95-0.62,1.91-1.22,2.86-1.83
				c0.69-0.43,1.45-0.85,2.04-1.42c0.78-0.76,2.21-0.4,2.8,0.38c0.11,0.15,0.19,0.3,0.25,0.46c0.93,0.02,2,0.75,1.99,1.74
				C453.76,371.19,453.28,373.01,452.61,374.78z M434.21,423.89c0.01,0,0.01,0,0.03-0.01c-0.1,0.03-0.2,0.06-0.3,0.09
				c-0.15,0.05-0.29,0.11-0.44,0.16c-0.29,0.12-0.58,0.27-0.86,0.41c-0.09,0.05-0.31,0.18-0.36,0.21c-0.13,0.09-0.26,0.17-0.39,0.26
				c-0.3,0.21-0.6,0.43-0.89,0.66c-1.11,0.86-2.13,1.83-3.27,2.66c-1.15,0.84-2.48,1.6-3.93,1.73c-1.74,0.15-3.35-0.54-4.65-1.66
				c-0.64-0.55-1.02-1.56-0.61-2.37c1.41-2.74,3.83-4.54,6.76-5.4c2.74-0.8,5.57-0.99,8.39-1.34c1.08-0.13,2.1,0.67,2.23,1.74
				c0.02,0.18,0.01,0.36-0.02,0.54c0,0.03,0.02,0.05,0.02,0.08C436.05,422.81,435.24,423.63,434.21,423.89z M400.64,463.55
				c-1.57,1.25-3.34,2.38-5.29,2.92c-2.22,0.62-4.38,0.5-6.57-0.21c-1.31-0.42-1.44-2.1-0.78-3.07c1.31-1.94,3.03-3.84,5.13-4.93
				c0.36-0.18,0.74-0.21,1.1-0.13c0.01,0,0.02,0,0.04-0.01c0.48-0.02,0.92,0.1,1.28,0.32c0.16,0.06,0.32,0.12,0.48,0.17
				c0.46,0.16,0.93,0.31,1.4,0.47c0.94,0.31,1.91,0.6,2.8,1.04C401.57,460.79,401.85,462.59,400.64,463.55z M361.66,527.06
				c-0.02,0.61-0.29,1.21-0.77,1.58c-0.76,0.57-1.54,1.13-2.34,1.66c-0.51,0.8-1.04,1.58-1.7,2.25c-0.67,0.68-1.43,1.34-2.36,1.64
				c-1.02,0.32-2.06,0.32-3.05-0.06c-0.57,0.16-1.15,0.26-1.72,0.26c-1.4,0.01-2.67-0.53-3.29-1.86c-0.64-1.37-0.23-2.77,0.84-3.75
				c0.77-0.71,1.8-1.17,2.77-1.56c1.17-0.48,2.38-0.86,3.59-1.24c1.18-0.37,2.38-0.72,3.55-1.12c0.45-0.15,0.9-0.31,1.34-0.5
				c0.14-0.06,0.27-0.13,0.4-0.19c0.03-0.02,0.05-0.04,0.08-0.06c0.87-0.7,2.12-0.44,2.8,0.38
				C362.44,525.24,362.28,526.36,361.66,527.06z M382.17,494.18c-0.02,0-0.04,0-0.07,0c-0.13,0.35-0.34,0.67-0.65,0.87
				c-1.49,0.98-3.19,1.75-5,1.88c-1.83,0.12-3.59-0.34-5.04-1.47c-1.04-0.81-0.97-2.36,0.02-3.17c1.47-1.19,3.29-1.81,5.15-2.01
				c0.85-0.09,1.7-0.11,2.55-0.1c0.54,0,1.08,0.01,1.62,0.02c0.16,0,0.34,0.02,0.51,0.02c-0.01,0,0.02-0.01,0.12-0.01
				c0.1,0,0.21,0,0.31,0c1.13,0,2.03,0.56,2.23,1.74C384.07,492.92,383.22,494.18,382.17,494.18z M402.53,520.01
				c-0.11,1.44-0.5,2.88-1.01,4.22c-0.79,2.08-2.17,4.63-4.39,5.45c-1.24,0.46-2.66,0.25-3.66-0.64c-1.07-0.95-1.58-2.13-1.45-3.56
				c0.1-1.13,0.57-2.26,1.05-3.28c0.61-1.29,1.34-2.52,2.11-3.72c0.67-1.04,1.38-2.06,2.15-3.02c0.58-0.73,1.21-1.5,1.95-2.07
				c0.89-0.68,2.11-0.45,2.8,0.38c0.58,0.7,0.5,1.74-0.03,2.43C402.59,517.38,402.63,518.76,402.53,520.01z M436.12,497.58
				c-0.35,0.31-0.74,0.53-1.14,0.71c-0.12,0.19-0.24,0.38-0.37,0.57c-0.45,0.62-1.09,0.81-1.79,0.81c-0.56,0-1.01-0.08-1.48-0.41
				c-0.23-0.16-0.47-0.48-0.61-0.8c-0.21-0.06-0.43-0.12-0.64-0.2c-0.64-0.23-1.13-0.93-1.19-1.59c-0.21-2.11,0.45-4.05,1.37-5.91
				c0.4-0.81,0.83-1.62,1.16-2.47c0.08-0.2,0.14-0.4,0.21-0.59c0,0,0,0,0,0c0.02-0.11,0.05-0.21,0.07-0.32
				c0.09-0.45,0.14-0.91,0.14-1.37c0.01-1.12,1.31-1.78,2.27-1.69c0.49,0.05,1.01,0.38,1.3,0.77c0.16,0.21,0.25,0.42,0.3,0.63
				c0.7,0.23,1.25,0.75,1.36,1.6c0.06,0.52-0.13,1.1-0.48,1.55c0.15,0.33,0.28,0.67,0.37,1.02c0.73,0.25,1.38,0.89,1.37,1.65
				C438.36,493.77,437.9,496.04,436.12,497.58z M447.72,488.33c-10.35-18.53-4.51-32.85,11.93-44.3
				C451.37,457.69,446.41,472.15,447.72,488.33z M474.27,483.94c-0.22,2.23-1.75,4.22-3.78,5.13c-2.27,1.01-4.75,0.35-6.43-1.4
				c-0.89-0.92-1.47-2.16-1.8-3.38c-0.35-1.29,0.21-2.52,0.73-3.69c0.51-1.15,1.1-2.28,1.66-3.42c0.07-0.63,0.13-1.26,0.14-1.89
				c0.01-0.24,0.05-0.48,0.15-0.71c0.09-0.14,0.17-0.29,0.26-0.43c0.05-0.94,0.84-1.69,1.76-1.85c0.76-0.13,1.47,0.28,1.88,0.88
				c0.6,0.34,0.89,0.97,0.92,1.63c0.72,0.65,1.32,1.46,1.69,2.35c0.02,0.05,0.03,0.1,0.05,0.15
				C473.27,479.08,474.53,481.34,474.27,483.94z M528.19,362.42c2.46,2.03,5.2,3.7,7.66,5.74c2.34,1.93,5.14,4.35,5.76,7.49
				c0.74,3.75-3.04,6.07-6.23,6.63c-8.2,1.45-11-9.45-11.02-15.57c0-0.74,0.27-1.43,0.81-1.85
				C524.39,363.18,526.47,361,528.19,362.42z M514.05,442.26c-0.76,2.24-2.6,3.94-4.52,5.21c-2.6,1.72-6.22,2.65-8.29-0.38
				c-1.68-2.46-1.78-5.84-1.8-8.71c-0.01-1.75,0.05-3.5,0.13-5.25c0.03-0.72,0.07-1.44,0.1-2.16c0.01-0.33,0.03-0.67,0.04-1
				c0-0.13,0.01-0.26,0.01-0.39c0-0.01,0-0.01,0-0.03c0-0.01,0-0.01,0-0.02c0-0.13,0-0.12,0-0.07c0.03-1.05,0.58-2,1.74-2.14
				c0.03,0,0.05,0,0.08,0c0.21-0.23,0.48-0.42,0.84-0.54c0.01,0,0.02-0.01,0.03-0.01c-0.15-0.19-0.3-0.37-0.45-0.56
				c-1.59-2.03,1.6-4.45,3.18-2.42c3.02,3.86,6.9,7.38,8.65,12.07C514.56,437.93,514.77,440.13,514.05,442.26z M500.17,349.36
				c-2.82,19.61,0.23,37.58,16.14,51.95C495.14,391.21,489.56,373.39,500.17,349.36z M554.69,311.67c-0.23,1.97-1.02,4.02-1.98,5.75
				c-0.88,1.57-2.13,3.03-3.99,3.35c-1.67,0.29-3.15-0.42-4.41-1.5c-0.07-0.03-0.14-0.05-0.21-0.09c-0.95-0.48-1.72-1.2-2.37-2.03
				c-0.24-0.22-0.43-0.49-0.56-0.79c-0.93-1.44-1.57-3.1-2.09-4.63c-0.04-0.11-0.07-0.23-0.1-0.34c-0.71-1.5-1.34-3.03-1.87-4.59
				c-0.18-0.52-0.16-1.08,0.03-1.55c-0.02-0.08-0.05-0.16-0.06-0.24c-0.06-0.15-0.1-0.31-0.16-0.46c-0.62-1.5,0.63-2.71,1.91-2.71
				c0.42-0.58,1.28-0.98,1.93-0.82c3.18,0.79,6.63,1.15,9.56,2.71c1.31,0.7,2.57,1.61,3.35,2.9
				C554.6,308.17,554.9,309.88,554.69,311.67z"/>
		</g>
		<g class="st0">
			<path class="st1" d="M337.61,347.23c-1.59,65.27-65.57,94.72-109.46,85.87c-23.26-4.69-36.9-21.78-42.27-44.67
				c-3.8-16.2,5.84-37.43,20.04-47.02c11.77-7.95,23.45-5.89,35.2-0.2c10.51,5.09,15.79,13.91,16.4,25.18
				c0.77,14.29-10.12,23.11-22.51,18.75c-7.56-2.66-11.89-7.75-7.23-15.44c2.81-4.64,9.4-7.86,0.39-12.32
				c-7.31-3.62-13.15-1.05-17.95,4.81c-9.12,11.12-7.06,30.85,4.73,42.5c8.76,8.66,19.7,13.81,31.9,12.76
				c52.42-4.52,96.29-51.28,65.92-105.42c-1.52-2.7-3.13-5.37-4.41-8.19c-2.33-5.12-1.54-10.39,2.9-13.39
				c6.13-4.15,8.96,2.17,11.14,5.86C331.65,311.96,337.93,328.66,337.61,347.23z"/>
			<path class="st1" d="M348.01,428.95c-8.02-0.16-16.22,1.01-23.82-2.66c-4.71-2.28-12.46-3.22-10.36-10.4
				c1.86-6.38,8.58-9.41,15.17-6.94c10.98,4.1,22.09,3.59,33.04,1.76c22.67-3.8,36.89-26.94,30.9-48.92
				c-2.38-8.74-7.22-14.69-16.96-13.82c-6.36,0.57-12.04,4.25-6.36,10.73c5.35,6.09,7.95,11.67,2.77,17.84
				c-3.66,4.37-9.68,4.95-15.57,2.98c-7.89-2.63-12.29-7.85-13.45-16.09c-1.62-11.57,2.37-21.08,11.51-27.74
				c11.28-8.22,23.87-9.93,36.82-3.76c18.19,8.66,27.92,33.08,21.76,54.13C404.9,415.38,383.75,429.24,348.01,428.95z"/>
			<path class="st1" d="M311.04,277.64c29.11-35.02,33.23-68.88,12.33-100.79c-3.47-5.3-6.93-11.36-14.58-7.03
				c-7.93,4.49-4.3,10.1-0.65,15.59c18.81,28.31,11.33,54.12-7.83,78.63c-7.26,9.29-15.33,17.97-22.22,27.51
				c-9.92,13.74-17.95,28.43-16.88,41.22c0.56,22.8,3.18,39.86,15.98,53.36c3.79,4,6.62,12.6,14.47,7.15
				c8.2-5.7,3.29-11.61-1.3-17.16c-15.66-18.91-15.31-39.19-6.46-61.11C289.94,300.03,301.18,289.5,311.04,277.64z"/>
		</g>
	</g>
</g>
<g id="Lag_2">
	<polygon class="st2" points="423.14,468.79 179.06,468.79 182.64,299.37 426.73,299.37 	"/>
	<text transform="matrix(1 0 0 1 189.8326 360.8082)"><tspan x="0" y="0" class="st3 st4">Takatomi</tspan><tspan x="36.15" y="91.2" class="st5 st6">髙臣</tspan></text>
</g>
</svg>
